# xmcd
#
# Track frame offsets: 
#        150
#        9517
#        24402
#        35975
#        52825
#        71235
#        91807
#        105694
#        118544
#        139572
#        150335
#        164501
#        179485
#
# Disc length: 2551 seconds
#
# Revision: 0
# Processed by: cddbd v1.5.2PL0 Copyright (c) Steve Scherf et al.
# Submitted via: ExactAudioCopy v0.99pb5
#
DISCID=a409f50d
DTITLE=Monogram - Hit The Road
DYEAR=2010
DGENRE=Bluegrass
TTITLE0=Hit THe Road
TTITLE1=Carried Away
TTITLE2=July Blues
TTITLE3=Whisky Shot
TTITLE4=California Dream
TTITLE5=Cure for you
TTITLE6=Whatever I Do
TTITLE7=Lost Ant
TTITLE8=Nelly and John
TTITLE9=Blue like Jeans
TTITLE10=Just a Little
TTITLE11=Kyrill
TTITLE12=Better Days
EXTD=
EXTT0=
EXTT1=
EXTT2=
EXTT3=
EXTT4=
EXTT5=
EXTT6=
EXTT7=
EXTT8=
EXTT9=
EXTT10=
EXTT11=
EXTT12=
PLAYORDER=
